<?xml version="1.0" encoding="UTF-8"?>
<svg id="Layer_1" data-name="Layer 1" xmlns="http://www.w3.org/2000/svg" viewBox="0 0 239.02 239.02">
  <defs>
    <style>
      .cls-1 {
        fill: none;
      }

      .cls-2 {
        fill: #fac8c9;
      }

      .cls-3 {
        isolation: isolate;
      }
    </style>
  </defs>
  <circle class="cls-2" cx="119.51" cy="119.51" r="119.51"/>
  <rect class="cls-1" x="46.41" y="77.96" width="158.43" height="114.61"/>
  <g class="cls-3">
    <g class="cls-3">
      <path d="m50.75,117.55v-36.19h5.44c2.42,0,4.35.19,5.79.56,1.45.38,2.68,1.01,3.68,1.9,1.02.92,1.82,2.07,2.41,3.45.61,1.39.91,2.8.91,4.22,0,2.59-.99,4.79-2.98,6.59,1.92.66,3.44,1.8,4.55,3.45,1.12,1.62,1.69,3.52,1.69,5.67,0,2.83-1,5.22-3,7.17-1.2,1.2-2.55,2.04-4.05,2.51-1.64.45-3.7.68-6.16.68h-8.27Zm5.46-20.65h1.71c2.03,0,3.52-.45,4.46-1.35s1.42-2.22,1.42-3.97-.48-3-1.45-3.88-2.38-1.32-4.22-1.32h-1.92v10.52Zm0,15.52h3.38c2.47,0,4.28-.48,5.44-1.45,1.22-1.05,1.83-2.38,1.83-3.98s-.59-2.88-1.76-3.94c-1.14-1.05-3.18-1.57-6.12-1.57h-2.77v10.95Z"/>
      <path d="m113.77,107.3h-16.45c.17,1.84.81,3.34,1.92,4.5,1.09,1.12,2.47,1.69,4.12,1.69,2.41,0,4.4-1.52,5.98-4.57l4.55,2.53c-.5.95-1.04,1.79-1.62,2.51s-1.2,1.32-1.88,1.8c-2.23,1.64-4.66,2.46-7.29,2.46-3.06,0-5.82-1.22-8.27-3.66-1.91,2.44-4.71,3.66-8.41,3.66-2.78,0-5.04-.7-6.77-2.11s-2.6-3.24-2.6-5.51.83-4.2,2.48-5.62c1.67-1.44,3.85-2.16,6.54-2.16,1.92,0,3.91.52,5.95,1.55,0-2.06-.43-3.5-1.29-4.31-.88-.83-2.34-1.24-4.41-1.24s-4.02.29-6.09.87v-4.9c2.72-.47,4.92-.7,6.61-.7,3.72,0,6.39,1.07,8.02,3.21,2.05-2.14,4.7-3.21,7.97-3.21s5.99,1.07,7.99,3.21,3,4.98,3,8.51l-.05,1.5Zm-31.62,3.21c0,.89.44,1.63,1.31,2.23.92.59,2.03.89,3.33.89,1.39,0,2.55-.3,3.49-.91.94-.62,1.41-1.4,1.41-2.32,0-.81-.48-1.52-1.45-2.11s-2.13-.89-3.49-.89c-1.28,0-2.37.3-3.26.91s-1.34,1.34-1.34,2.2Zm26.09-7.48c-.64-2.8-2.35-4.2-5.13-4.2s-4.64,1.4-5.44,4.2h10.57Z"/>
      <path d="m119.44,94.72h5.27v2.04c.97-1.02,1.83-1.71,2.58-2.09.77-.39,1.67-.59,2.72-.59,1.39,0,2.84.45,4.36,1.36l-2.41,4.83c-1-.72-1.98-1.08-2.93-1.08-2.88,0-4.31,2.17-4.31,6.52v11.84h-5.27v-22.83Z"/>
      <path d="m143.4,94.72v13.1c0,3.78,1.49,5.67,4.48,5.67s4.48-1.89,4.48-5.67v-13.1h5.27v13.22c0,1.83-.23,3.41-.68,4.73-.44,1.19-1.2,2.26-2.27,3.21-1.78,1.55-4.05,2.32-6.8,2.32s-4.99-.77-6.77-2.32c-1.09-.95-1.87-2.02-2.32-3.21-.44-1.06-.66-2.64-.66-4.73v-13.22h5.27Z"/>
      <path d="m164.28,94.72h5.27v2.11c1.02-1.06,1.88-1.78,2.6-2.16.77-.39,1.73-.59,2.88-.59,2.58,0,4.62,1.12,6.12,3.38,1.66-2.25,3.9-3.38,6.73-3.38,5.14,0,7.71,3.12,7.71,9.35v14.11h-5.3v-12.68c0-2.19-.27-3.73-.8-4.64-.55-.92-1.45-1.38-2.7-1.38-1.45,0-2.51.55-3.18,1.64s-1,2.85-1,5.27v11.79h-5.3v-12.61c0-4.06-1.17-6.09-3.52-6.09-1.48,0-2.57.55-3.25,1.66s-1.02,2.86-1.02,5.25v11.79h-5.27v-22.83Z"/>
    </g>
    <g class="cls-3">
      <path d="m70.53,140.38h-16.36c.14,1.88.75,3.37,1.83,4.48,1.08,1.09,2.46,1.64,4.15,1.64,1.31,0,2.4-.31,3.26-.94.84-.62,1.8-1.78,2.88-3.47l4.45,2.48c-.69,1.17-1.41,2.18-2.18,3.01s-1.59,1.52-2.46,2.06-1.82.93-2.84,1.18-2.12.38-3.3.38c-3.41,0-6.14-1.09-8.2-3.28-2.06-2.2-3.09-5.12-3.09-8.77s1-6.53,3-8.77c2.02-2.2,4.69-3.3,8.02-3.3s6.02,1.07,7.97,3.21c1.94,2.12,2.91,5.07,2.91,8.84l-.02,1.24Zm-5.41-4.31c-.73-2.81-2.51-4.22-5.32-4.22-.64,0-1.24.1-1.8.29s-1.07.48-1.54.84-.86.81-1.18,1.32-.58,1.1-.75,1.76h10.59Z"/>
      <path d="m78.31,127.72l5.91,12.82,5.88-12.82h5.93l-11.86,24.4-11.77-24.4h5.91Z"/>
      <path d="m119.56,140.38h-16.36c.14,1.88.75,3.37,1.83,4.48,1.08,1.09,2.46,1.64,4.15,1.64,1.31,0,2.4-.31,3.26-.94.84-.62,1.8-1.78,2.88-3.47l4.45,2.48c-.69,1.17-1.41,2.18-2.18,3.01s-1.59,1.52-2.46,2.06-1.82.93-2.84,1.18-2.12.38-3.3.38c-3.41,0-6.14-1.09-8.2-3.28-2.06-2.2-3.09-5.12-3.09-8.77s1-6.53,3-8.77c2.02-2.2,4.69-3.3,8.02-3.3s6.02,1.07,7.97,3.21c1.94,2.12,2.91,5.07,2.91,8.84l-.02,1.24Zm-5.41-4.31c-.73-2.81-2.51-4.22-5.32-4.22-.64,0-1.24.1-1.8.29s-1.07.48-1.54.84-.86.81-1.18,1.32-.58,1.1-.75,1.76h10.59Z"/>
      <path d="m125.33,127.72h5.3v2.11c1.84-1.83,3.92-2.74,6.23-2.74,2.66,0,4.73.84,6.21,2.51,1.28,1.42,1.92,3.74,1.92,6.96v13.99h-5.3v-12.75c0-2.25-.31-3.8-.94-4.66-.61-.88-1.72-1.31-3.33-1.31-1.75,0-2.99.58-3.73,1.73-.72,1.14-1.08,3.13-1.08,5.98v11.02h-5.3v-22.83Z"/>
      <path d="m157.08,132.64v17.91h-5.27v-17.91h-2.25v-4.92h2.25v-8.37h5.27v8.37h4.1v4.92h-4.1Z"/>
      <path d="m178.04,131.61l-4.36,2.32c-.69-1.41-1.54-2.11-2.55-2.11-.48,0-.9.16-1.24.48s-.52.73-.52,1.23c0,.88,1.02,1.74,3.05,2.6,2.8,1.2,4.68,2.31,5.65,3.33s1.45,2.38,1.45,4.1c0,2.2-.81,4.05-2.44,5.53-1.58,1.41-3.48,2.11-5.72,2.11-3.83,0-6.54-1.87-8.13-5.6l4.5-2.09c.62,1.09,1.1,1.79,1.43,2.09.64.59,1.41.89,2.3.89,1.78,0,2.67-.81,2.67-2.44,0-.94-.69-1.81-2.06-2.62-.53-.27-1.06-.52-1.59-.77s-1.07-.51-1.62-.77c-1.53-.75-2.61-1.5-3.23-2.25-.8-.95-1.2-2.18-1.2-3.68,0-1.98.68-3.62,2.04-4.92,1.39-1.3,3.08-1.95,5.06-1.95,2.92,0,5.09,1.51,6.52,4.52Z"/>
    </g>
  </g>
</svg>