<?xml version="1.0" encoding="UTF-8" standalone="no"?>
<!-- Created with Inkscape (http://www.inkscape.org/) -->

<svg
   version="1.1"
   id="svg2"
   xml:space="preserve"
   width="1044"
   height="1005.3333"
   viewBox="0 0 1044 1005.3333"
   sodipodi:docname="snobjorn-logo-advanced-vektor-rgb-no-text.ai"
   xmlns:inkscape="http://www.inkscape.org/namespaces/inkscape"
   xmlns:sodipodi="http://sodipodi.sourceforge.net/DTD/sodipodi-0.dtd"
   xmlns="http://www.w3.org/2000/svg"
   xmlns:svg="http://www.w3.org/2000/svg"><defs
     id="defs6"><clipPath
       clipPathUnits="userSpaceOnUse"
       id="clipPath16"><path
         d="M 0,754 H 783 V 0 H 0 Z"
         id="path14" /></clipPath><clipPath
       clipPathUnits="userSpaceOnUse"
       id="clipPath32"><path
         d="m 392.146,734.913 -0.498,-0.015 -0.497,0.015 c -7.69,0.205 -15.287,0.309 -22.586,0.309 v 0 c -10.046,0 -19.939,-0.197 -29.405,-0.589 v 0 c -18.892,-0.778 -36.149,-2.27 -52.737,-4.564 v 0 c -19.114,-2.657 -35.898,-6.166 -51.286,-10.72 v 0 c -8.948,-2.662 -16.877,-5.518 -24.207,-8.719 v 0 c -4.162,-1.83 -7.849,-3.641 -11.261,-5.544 v 0 c -1.921,-1.071 -3.622,-2.091 -5.198,-3.121 v 0 c -0.787,-0.513 -1.569,-1.044 -2.358,-1.62 v 0 c -0.338,-0.246 -0.68,-0.5 -0.849,-0.629 v 0 l -0.69,-0.56 -3.618,-3.274 -4.252,-1.176 -2.588,-0.687 h -2.521 c -3.753,0 -7.486,1.081 -10.685,3.05 v 0 c -14.921,9.054 -30.003,16.057 -44.864,20.831 v 0 c -3.961,1.281 -7.888,2.38 -11.54,3.238 v 0 l -3.186,0.725 -1.524,0.319 -1.078,0.205 c -1.998,0.339 -3.625,0.533 -5.324,0.627 v 0 c -1.001,0.059 -2.005,0.088 -3.005,0.088 v 0 c -6.182,0 -12.427,-1.068 -18.659,-3.206 v 0 c -6.895,-2.322 -13.71,-5.902 -20.179,-10.585 v 0 c -3.127,-2.284 -6.184,-4.826 -9.007,-7.48 v 0 c -2.776,-2.639 -5.501,-5.563 -8.043,-8.619 v 0 c -4.999,-6.067 -9.244,-12.705 -12.669,-19.838 v 0 c -3.413,-6.995 -5.913,-14.346 -7.448,-21.956 v 0 c -3.102,-14.924 -1.972,-30.579 3.197,-44.124 v 0 c 2.638,-6.957 6.188,-13.481 10.521,-19.349 v 0 c 2.479,-3.336 4.851,-6.208 7.341,-8.877 v 0 c 1.353,-1.47 2.848,-2.947 4.002,-4.074 v 0 c 1.659,-1.623 3.3,-3.269 4.939,-4.946 v 0 l 9.896,-10.285 -5.551,-11.614 c -1.922,-4.023 -3.461,-7.838 -4.814,-11.305 v 0 c -1.541,-3.982 -3.032,-8.16 -4.436,-12.416 v 0 c -2.71,-8.219 -5.132,-16.811 -7.199,-25.538 v 0 c -4.054,-17.101 -6.767,-34.747 -8.069,-52.457 v 0 c -1.496,-20.31 -1.118,-40.571 1.122,-60.596 v 0 l 14.787,27.108 7.922,-55.354 c 0.889,-6.2 2.083,-12.851 3.753,-20.886 v 0 c 1.865,-8.865 4.11,-18.042 6.671,-27.264 v 0 c 5.012,-18.022 11.166,-35.939 18.287,-53.251 v 0 c 8.278,-20.113 17.813,-39.305 28.513,-57.423 v 0 l -0.542,14.266 32.087,-26.889 c 7.956,-6.666 16.767,-13.491 26.995,-20.9 v 0 c 4.714,-3.446 9.938,-7.118 16.036,-11.27 v 0 c 5.149,-3.541 10.623,-7.167 16.37,-10.844 v 0 c 9.614,-6.236 20.292,-12.745 33.557,-20.454 v 0 c 11.447,-6.601 23.449,-12.8 34.719,-18.521 v 0 c 6.519,-3.31 13.071,-6.532 19.613,-9.75 v 0 c 5.422,-2.668 10.837,-5.332 16.209,-8.03 v 0 c 11.851,-5.941 24.105,-12.084 36.036,-18.838 v 0 c 14.31,-7.988 25.577,-15.337 35.566,-23.208 v 0 c 5.303,-4.24 9.822,-8.411 13.736,-12.685 v 0 c 3.897,4.256 8.44,8.447 13.842,12.77 v 0 c 9.887,7.789 21.157,15.137 35.369,23.071 v 0 c 12.018,6.804 24.275,12.949 36.112,18.882 v 0 c 5.379,2.703 10.785,5.363 16.199,8.027 v 0 c 6.55,3.219 13.111,6.446 19.642,9.764 v 0 c 11.262,5.715 23.262,11.914 34.664,18.49 v 0 c 13.327,7.745 24.006,14.253 33.705,20.544 v 0 c 5.632,3.602 11.106,7.231 16.339,10.829 v 0 c 6.021,4.097 11.246,7.77 16.031,11.264 v 0 c 10.184,7.382 18.993,14.204 26.929,20.857 v 0 l 32.086,26.902 -0.54,-14.284 c 10.703,18.119 20.239,37.314 28.517,57.422 v 0 c 7.125,17.327 13.278,35.245 18.286,53.252 v 0 c 2.55,9.174 4.794,18.352 6.664,27.222 v 0 c 1.671,8.053 2.866,14.706 3.763,20.942 v 0 l 7.944,55.303 14.766,-27.066 c 2.239,20.03 2.618,40.293 1.12,60.603 v 0 c -1.302,17.697 -4.015,35.346 -8.069,52.452 v 0 c -2.068,8.727 -4.489,17.319 -7.195,25.526 v 0 c -1.451,4.395 -2.905,8.46 -4.422,12.378 v 0 c -1.306,3.349 -2.9,7.314 -4.831,11.355 v 0 l -5.539,11.589 9.896,10.323 c 1.62,1.659 3.26,3.305 4.94,4.948 v 0 c 1.048,1.019 2.597,2.548 4.075,4.155 v 0 c 2.408,2.579 4.779,5.451 7.221,8.737 v 0 c 4.369,5.917 7.918,12.441 10.569,19.437 v 0 c 5.153,13.498 6.283,29.156 3.162,44.184 v 0 c -1.515,7.511 -4.017,14.861 -7.485,21.969 v 0 c -3.362,7.008 -7.604,13.644 -12.565,19.659 v 0 c -2.598,3.129 -5.319,6.047 -8.012,8.605 v 0 c -2.901,2.727 -5.956,5.27 -9.01,7.503 v 0 c -6.544,4.736 -13.358,8.316 -20.351,10.672 v 0 c -6.135,2.104 -12.382,3.172 -18.56,3.172 v 0 c -1.004,0 -2.004,-0.029 -3.057,-0.091 v 0 c -1.65,-0.091 -3.276,-0.285 -5.486,-0.66 v 0 l -2.39,-0.488 -3.053,-0.695 c -3.795,-0.891 -7.724,-1.992 -11.708,-3.279 v 0 c -14.828,-4.763 -29.91,-11.769 -44.741,-20.765 v 0 c -3.308,-2.03 -7.032,-3.105 -10.772,-3.105 v 0 l -2.704,0.015 -6.676,1.864 -3.553,3.218 -0.615,0.501 c -0.329,0.254 -0.648,0.495 -0.961,0.721 v 0 c -0.794,0.577 -1.579,1.114 -2.37,1.627 v 0 c -1.588,1.039 -3.289,2.061 -5.178,3.113 v 0 c -3.432,1.911 -7.12,3.725 -11.251,5.539 v 0 c -7.359,3.214 -15.285,6.07 -24.211,8.727 v 0 c -15.409,4.559 -32.192,8.068 -51.291,10.722 v 0 c -16.607,2.297 -33.864,3.789 -52.758,4.567 v 0 c -9.464,0.392 -19.357,0.589 -29.403,0.589 v 0 c -7.298,0 -14.895,-0.104 -22.586,-0.309"
         id="path30" /></clipPath></defs><sodipodi:namedview
     id="namedview4"
     pagecolor="#ffffff"
     bordercolor="#666666"
     borderopacity="1.0"
     inkscape:pageshadow="2"
     inkscape:pageopacity="0.0"
     inkscape:pagecheckerboard="0" /><g
     id="g8"
     inkscape:groupmode="layer"
     inkscape:label="snobjorn-logo-advanced-vektor-rgb-no-text"
     transform="matrix(1.3333333,0,0,-1.3333333,0,1005.3333)"><g
       id="g10"><g
         id="g12"
         clip-path="url(#clipPath16)"><g
           id="g18"
           transform="translate(750.8396,561.7068)"><path
             d="m 0,0 c 1.571,1.534 3.172,3.136 4.681,4.78 3.059,3.275 5.9,6.761 8.587,10.379 5.357,7.253 9.741,15.297 12.98,23.844 6.531,17.106 7.791,36.327 4.015,54.49 -1.836,9.099 -4.862,17.965 -8.942,26.324 -4.025,8.389 -9.084,16.292 -15.03,23.503 -2.984,3.592 -6.171,7.032 -9.572,10.266 -3.417,3.212 -7.035,6.232 -10.847,9.018 -7.643,5.53 -16.093,10.122 -25.213,13.193 -9.088,3.116 -18.887,4.629 -28.677,4.059 -2.473,-0.139 -4.81,-0.425 -7.364,-0.862 -0.685,-0.108 -1.125,-0.212 -1.694,-0.318 l -1.752,-0.367 -3.34,-0.762 c -4.442,-1.044 -8.823,-2.284 -13.139,-3.677 -17.273,-5.548 -33.541,-13.378 -48.781,-22.621 -0.76,-0.467 -1.206,-0.344 -1.206,-0.344 l -0.579,0.524 -0.44,0.368 -0.821,0.664 c -0.54,0.422 -1.067,0.818 -1.59,1.2 -1.051,0.764 -2.092,1.474 -3.136,2.158 -2.089,1.363 -4.187,2.609 -6.301,3.789 -4.229,2.352 -8.516,4.426 -12.845,6.325 -8.661,3.784 -17.48,6.872 -26.377,9.518 -17.801,5.268 -35.889,8.792 -54.022,11.313 -18.14,2.507 -36.341,3.977 -54.534,4.727 -17.767,0.732 -35.535,0.761 -53.252,0.287 -17.717,0.474 -35.485,0.445 -53.253,-0.287 -18.192,-0.75 -36.393,-2.22 -54.533,-4.727 -18.133,-2.521 -36.222,-6.045 -54.022,-11.313 -8.897,-2.646 -17.717,-5.734 -26.377,-9.518 -4.329,-1.899 -8.616,-3.973 -12.842,-6.325 -2.114,-1.18 -4.215,-2.426 -6.304,-3.789 -1.044,-0.684 -2.085,-1.394 -3.136,-2.158 -0.524,-0.382 -1.054,-0.778 -1.59,-1.2 l -0.822,-0.664 -0.439,-0.368 -0.579,-0.524 c 0,0 -0.449,-0.123 -1.206,0.344 -15.24,9.243 -31.508,17.073 -48.785,22.621 -4.312,1.393 -8.69,2.633 -13.135,3.677 l -3.34,0.762 -1.752,0.367 c -0.569,0.106 -1.009,0.21 -1.694,0.318 -2.554,0.437 -4.888,0.723 -7.365,0.862 -9.789,0.57 -19.588,-0.943 -28.676,-4.059 -9.117,-3.071 -17.57,-7.663 -25.213,-13.193 -3.812,-2.786 -7.43,-5.806 -10.847,-9.018 -3.401,-3.234 -6.588,-6.674 -9.576,-10.266 -5.942,-7.211 -10.998,-15.114 -15.026,-23.503 -4.081,-8.359 -7.106,-17.225 -8.943,-26.324 -3.776,-18.163 -2.515,-37.384 4.016,-54.49 3.239,-8.547 7.623,-16.591 12.98,-23.844 2.686,-3.618 5.528,-7.104 8.583,-10.379 1.513,-1.644 3.114,-3.246 4.685,-4.78 1.558,-1.523 3.1,-3.068 4.623,-4.627 0.297,-0.305 0.592,-0.614 0.886,-0.919 -2.05,-4.29 -3.728,-8.382 -5.38,-12.615 -1.704,-4.405 -3.281,-8.839 -4.752,-13.302 -2.942,-8.924 -5.474,-17.958 -7.633,-27.069 -4.319,-18.223 -7.151,-36.757 -8.519,-55.377 -2.745,-37.235 0.543,-74.821 9.734,-110.807 l 1.32,-5.703 2.812,5.147 10.103,18.521 c 1.064,-7.432 2.441,-14.749 3.964,-22.077 2.007,-9.547 4.341,-19.02 6.95,-28.418 5.228,-18.793 11.577,-37.282 19.007,-55.344 14.865,-36.109 34.113,-70.556 57.889,-101.766 l 8.706,-9.431 -0.456,12.027 -0.834,21.958 c 9.065,-7.597 18.421,-14.745 27.968,-21.664 5.421,-3.961 10.924,-7.798 16.472,-11.577 5.531,-3.802 11.131,-7.504 16.785,-11.121 11.264,-7.307 22.779,-14.216 34.386,-20.96 11.683,-6.737 23.642,-12.931 35.588,-18.993 11.948,-6.068 24.001,-11.842 35.908,-17.823 11.906,-5.971 23.791,-11.933 35.303,-18.45 11.545,-6.447 22.773,-13.424 33.021,-21.496 5.086,-4.067 9.886,-8.473 13.983,-13.41 4.06,-4.937 7.497,-10.397 9.333,-16.43 l 2.024,0.53 2.024,-0.53 c 1.836,6.033 5.273,11.493 9.333,16.43 4.096,4.937 8.897,9.343 13.983,13.41 10.248,8.072 21.476,15.049 33.021,21.496 11.512,6.517 23.396,12.479 35.303,18.45 11.907,5.981 23.96,11.755 35.908,17.823 11.946,6.062 23.905,12.256 35.588,18.993 11.607,6.744 23.122,13.653 34.386,20.96 5.654,3.617 11.254,7.319 16.785,11.121 5.548,3.779 11.051,7.616 16.472,11.577 9.547,6.919 18.903,14.067 27.965,21.664 l -0.831,-21.958 -0.456,-12.027 8.706,9.431 c 23.775,31.21 43.024,65.657 57.889,101.766 7.429,18.062 13.779,36.551 19.006,55.344 2.61,9.398 4.941,18.871 6.951,28.418 1.523,7.328 2.897,14.645 3.964,22.077 l 10.103,-18.521 2.809,-5.147 1.323,5.703 c 9.191,35.986 12.482,73.572 9.734,110.807 -1.368,18.62 -4.2,37.154 -8.519,55.377 -2.16,9.111 -4.691,18.145 -7.633,27.069 -1.474,4.463 -3.049,8.897 -4.753,13.302 -1.651,4.233 -3.329,8.325 -5.379,12.615 0.294,0.305 0.589,0.614 0.886,0.919 C -3.1,-3.068 -1.558,-1.523 0,0"
             style="fill:#033b60;fill-opacity:1;fill-rule:nonzero;stroke:none"
             id="path20" /></g><g
           id="g22"
           transform="translate(391.6486,31.6441)"><path
             d="m 0,0 c -3.914,4.274 -8.434,8.444 -13.737,12.685 -9.989,7.871 -21.256,15.219 -35.566,23.208 -11.931,6.754 -24.185,12.897 -36.035,18.837 -5.372,2.699 -10.788,5.363 -16.21,8.03 -6.542,3.219 -13.093,6.441 -19.613,9.751 -11.269,5.72 -23.272,11.92 -34.718,18.522 -13.266,7.708 -23.944,14.216 -33.557,20.452 -5.747,3.678 -11.222,7.304 -16.371,10.845 -6.097,4.152 -11.321,7.825 -16.036,11.269 -10.228,7.41 -19.039,14.235 -26.995,20.901 l -32.086,26.889 0.542,-14.266 c -10.701,18.117 -20.235,37.31 -28.514,57.423 -7.121,17.312 -13.274,35.229 -18.287,53.251 -2.561,9.222 -4.805,18.4 -6.67,27.264 -1.67,8.035 -2.865,14.686 -3.753,20.885 l -7.922,55.356 -14.788,-27.109 c -2.24,20.025 -2.618,40.286 -1.121,60.596 1.301,17.71 4.015,35.356 8.068,52.457 2.067,8.727 4.489,17.319 7.199,25.538 1.404,4.256 2.895,8.434 4.436,12.415 1.353,3.468 2.892,7.284 4.815,11.306 l 5.55,11.614 -9.896,10.285 c -1.639,1.677 -3.28,3.323 -4.938,4.945 -1.155,1.128 -2.649,2.605 -4.002,4.075 -2.491,2.67 -4.863,5.541 -7.342,8.877 -4.332,5.868 -7.883,12.392 -10.52,19.349 -5.17,13.545 -6.3,29.2 -3.197,44.124 1.535,7.61 4.034,14.96 7.447,21.956 3.426,7.133 7.671,13.771 12.67,19.838 2.542,3.056 5.266,5.98 8.042,8.618 2.823,2.655 5.88,5.197 9.007,7.481 6.469,4.683 13.284,8.263 20.179,10.585 6.233,2.138 12.478,3.206 18.659,3.206 1.001,0 2.004,-0.028 3.006,-0.088 1.699,-0.093 3.325,-0.288 5.323,-0.627 l 1.079,-0.205 1.524,-0.319 3.185,-0.726 c 3.652,-0.858 7.579,-1.956 11.541,-3.237 14.86,-4.774 29.942,-11.777 44.863,-20.831 3.199,-1.97 6.933,-3.051 10.686,-3.051 h 2.521 l 2.588,0.687 4.252,1.177 3.618,3.274 0.689,0.559 c 0.169,0.13 0.511,0.384 0.849,0.63 0.789,0.576 1.572,1.107 2.359,1.62 1.576,1.029 3.276,2.05 5.198,3.121 3.412,1.902 7.098,3.714 11.26,5.544 7.33,3.201 15.259,6.057 24.207,8.719 15.388,4.554 32.172,8.063 51.286,10.72 16.588,2.294 33.845,3.787 52.738,4.564 9.465,0.392 19.358,0.589 29.405,0.589 7.298,0 14.895,-0.104 22.585,-0.309 L 0,703.254 l 0.498,0.015 c 7.69,0.205 15.287,0.309 22.585,0.309 10.047,0 19.94,-0.197 29.403,-0.589 18.895,-0.777 36.152,-2.27 52.758,-4.567 19.1,-2.654 35.882,-6.163 51.291,-10.722 8.926,-2.657 16.852,-5.513 24.211,-8.727 4.131,-1.814 7.82,-3.629 11.251,-5.539 1.89,-1.052 3.59,-2.073 5.179,-3.113 0.79,-0.513 1.576,-1.05 2.369,-1.628 0.313,-0.225 0.632,-0.466 0.961,-0.72 l 0.615,-0.5 3.553,-3.219 6.677,-1.864 2.703,-0.016 c 3.74,0 7.465,1.076 10.772,3.105 14.831,8.997 29.913,16.003 44.741,20.767 3.984,1.285 7.914,2.387 11.708,3.279 l 3.053,0.694 2.39,0.487 c 2.211,0.376 3.836,0.571 5.487,0.661 1.052,0.063 2.053,0.091 3.056,0.091 6.179,0 12.425,-1.068 18.561,-3.172 6.992,-2.356 13.807,-5.936 20.351,-10.671 3.053,-2.234 6.109,-4.777 9.01,-7.504 2.692,-2.558 5.414,-5.476 8.011,-8.605 4.961,-6.016 9.204,-12.651 12.566,-19.659 3.468,-7.107 5.969,-14.458 7.485,-21.969 3.121,-15.028 1.991,-30.686 -3.162,-44.184 -2.652,-6.996 -6.2,-13.52 -10.57,-19.437 -2.441,-3.286 -4.813,-6.158 -7.221,-8.737 -1.477,-1.607 -3.027,-3.136 -4.074,-4.155 -1.68,-1.643 -3.321,-3.289 -4.941,-4.948 l -9.895,-10.323 5.539,-11.589 c 1.93,-4.041 3.524,-8.006 4.831,-11.355 1.516,-3.919 2.97,-7.983 4.422,-12.379 2.705,-8.206 5.126,-16.798 7.195,-25.525 4.053,-17.106 6.767,-34.755 8.068,-52.452 1.498,-20.31 1.12,-40.574 -1.119,-60.604 l -14.767,27.067 -7.944,-55.303 c -0.896,-6.236 -2.091,-12.889 -3.763,-20.942 -1.869,-8.87 -4.113,-18.048 -6.664,-27.223 -5.007,-18.006 -11.161,-35.924 -18.286,-53.251 -8.278,-20.107 -17.814,-39.303 -28.516,-57.423 l 0.539,14.284 -32.085,-26.901 c -7.936,-6.654 -16.746,-13.476 -26.93,-20.857 -4.784,-3.494 -10.009,-7.167 -16.03,-11.265 -5.233,-3.597 -10.707,-7.226 -16.34,-10.829 -9.699,-6.29 -20.377,-12.798 -33.705,-20.543 C 144.426,84.428 132.425,78.229 121.163,72.513 114.632,69.196 108.072,65.969 101.522,62.75 96.107,60.085 90.701,57.426 85.323,54.723 73.485,48.79 61.228,42.644 49.21,35.841 34.998,27.907 23.729,20.559 13.841,12.77 8.439,8.447 3.896,4.256 0,0"
             style="fill:#033b60;fill-opacity:1;fill-rule:nonzero;stroke:none"
             id="path24" /></g></g></g><g
       id="g26"><g
         id="g28"
         clip-path="url(#clipPath32)"><g
           id="g34"
           transform="translate(128.6385,404.9668)"><path
             d="m 0,0 c 1.72,2.129 207.953,131.187 207.953,131.187 l 5.477,-19.781 50.418,51.201 4.951,-9.239 28.735,29.109 L 295.749,11.625 44.346,-51.94 Z"
             style="fill:#fffffd;fill-opacity:1;fill-rule:nonzero;stroke:none"
             id="path36" /></g><g
           id="g38"
           transform="translate(168.4069,358.7605)"><path
             d="m 0,0 c 7.33,4.517 168.185,177.394 168.185,177.394 l 21.835,-31.787 5.763,18.515 16.828,-22.048 19.08,39.546 14.415,-12.135 11.66,59.198 26.439,-49.612 16.467,16.206 10.237,-21.479 137.907,-100.615 -312.155,-244.39 z"
             style="fill:#087ca7;fill-opacity:1;fill-rule:nonzero;stroke:none"
             id="path40" /></g><g
           id="g42"
           transform="translate(783.2141,469.3506)"><path
             d="m 0,0 -0.635,1.476 -72.763,-30.309 -123.851,215.144 -121.508,-191.525 -69.874,-114.411 -81.695,-63.063 153.77,-313.334 148.558,-49.292 H 0 Z"
             style="fill:#087ca7;fill-opacity:1;fill-rule:nonzero;stroke:none"
             id="path44" /></g><g
           id="g46"
           transform="translate(667.2919,375.1196)"><path
             d="m 0,0 -81.327,280.542 -127.702,-170.041 -3.94,10.315 -44.973,-75.443 -64.772,-86.248 31.736,-38.295 105.25,-127.82 121.493,-155.207 96.949,-0.097 18.296,70.098 -75.549,113.31 18.29,67.364 -44.376,84.173 z"
             style="fill:#fdfdfa;fill-opacity:1;fill-rule:nonzero;stroke:none"
             id="path48" /></g><g
           id="g50"
           transform="translate(783.2141,-43.5826)"><path
             d="m 0,0 c -14.698,39.672 -30.575,84.06 -29.267,87.293 2.396,5.924 -189.23,162.175 -189.23,162.175 l -30.622,68.891 9.757,15.072 -135.943,100.336 -49.433,1.505 -143.175,108.613 -215.218,-171.559 V -32.381 l 783.131,0 z"
             style="fill:#ffffff;fill-opacity:1;fill-rule:nonzero;stroke:none"
             id="path52" /></g><g
           id="g54"
           transform="translate(498.1913,-75.9636)"><path
             d="m 0,0 c -3.369,28.84 -6.753,58.938 -6.753,58.938 l 3.915,52.598 -78.17,78.85 -31.109,80.878 -72.315,65.594 -43.642,83.19 -19.48,0.863 -35.336,155.355 -215.218,-171.559 V 0 Z"
             style="fill:#087ca7;fill-opacity:1;fill-rule:nonzero;stroke:none"
             id="path56" /></g></g></g></g></svg>
