<?xml version="1.0" encoding="UTF-8" standalone="no"?>
<!-- Created with Inkscape (http://www.inkscape.org/) -->

<svg
   version="1.1"
   id="svg2"
   xml:space="preserve"
   width="2666.6667"
   height="2666.6667"
   viewBox="0 0 2666.6667 2666.6667"
   sodipodi:docname="snobjorn-logo-simple-vektor-rgb-hvit.ai"
   xmlns:inkscape="http://www.inkscape.org/namespaces/inkscape"
   xmlns:sodipodi="http://sodipodi.sourceforge.net/DTD/sodipodi-0.dtd"
   xmlns="http://www.w3.org/2000/svg"
   xmlns:svg="http://www.w3.org/2000/svg"><defs
     id="defs6"><clipPath
       clipPathUnits="userSpaceOnUse"
       id="clipPath16"><path
         d="M 0,2000 H 2000 V 0 H 0 Z"
         id="path14" /></clipPath></defs><sodipodi:namedview
     id="namedview4"
     pagecolor="#ffffff"
     bordercolor="#666666"
     borderopacity="1.0"
     inkscape:pageshadow="2"
     inkscape:pageopacity="0.0"
     inkscape:pagecheckerboard="0" /><g
     id="g8"
     inkscape:groupmode="layer"
     inkscape:label="snobjorn-logo-simple-vektor-rgb-hvit"
     transform="matrix(1.3333333,0,0,-1.3333333,0,2666.6667)"><g
       id="g10"><g
         id="g12"
         clip-path="url(#clipPath16)"><g
           id="g18"
           transform="translate(1599.583,1252.2207)"><path
             d="m 0,0 c 2.623,2.561 5.295,5.235 7.816,7.98 5.106,5.468 9.851,11.29 14.336,17.33 8.945,12.11 16.264,25.54 21.672,39.812 10.905,28.56 13.009,60.652 6.704,90.977 -3.065,15.192 -8.117,29.995 -14.929,43.951 -6.721,14.008 -15.168,27.202 -25.095,39.242 -4.983,5.998 -10.305,11.741 -15.983,17.141 -5.706,5.362 -11.746,10.404 -18.11,15.057 -12.76,9.233 -26.87,16.898 -42.098,22.026 -15.172,5.204 -31.533,7.73 -47.877,6.777 -4.13,-0.232 -8.032,-0.71 -12.296,-1.439 -1.145,-0.18 -1.879,-0.353 -2.828,-0.531 l -2.926,-0.613 -5.576,-1.271 c -7.417,-1.743 -14.731,-3.814 -21.937,-6.14 -28.841,-9.262 -56.003,-22.336 -81.447,-37.768 -1.27,-0.781 -2.014,-0.575 -2.014,-0.575 l -0.967,0.874 -0.733,0.616 -1.371,1.109 c -0.902,0.704 -1.781,1.365 -2.656,2.003 -1.754,1.275 -3.493,2.461 -5.236,3.602 -3.487,2.276 -6.99,4.356 -10.52,6.327 -7.061,3.927 -14.218,7.389 -21.446,10.56 -14.461,6.319 -29.185,11.474 -44.041,15.891 -29.72,8.796 -59.921,14.68 -90.197,18.89 -30.287,4.186 -60.677,6.639 -91.05,7.891 -29.666,1.223 -59.333,1.272 -88.913,0.481 -29.58,0.791 -59.246,0.742 -88.912,-0.481 -30.374,-1.252 -60.764,-3.705 -91.051,-7.891 -30.276,-4.21 -60.476,-10.094 -90.197,-18.89 -14.854,-4.417 -29.58,-9.572 -44.04,-15.891 -7.228,-3.171 -14.386,-6.633 -21.44,-10.56 -3.531,-1.971 -7.039,-4.051 -10.526,-6.327 -1.743,-1.141 -3.481,-2.327 -5.236,-3.602 -0.875,-0.638 -1.76,-1.299 -2.656,-2.003 l -1.37,-1.109 -0.734,-0.616 -0.967,-0.874 c 0,0 -0.75,-0.206 -2.013,0.575 -25.446,15.432 -52.607,28.506 -81.453,37.768 -7.201,2.326 -14.509,4.397 -21.932,6.14 l -5.575,1.271 -2.926,0.613 c -0.95,0.178 -1.684,0.351 -2.829,0.531 -4.264,0.729 -8.161,1.207 -12.296,1.439 -16.344,0.953 -32.705,-1.573 -47.878,-6.777 -15.222,-5.128 -29.337,-12.793 -42.097,-22.026 -6.365,-4.653 -12.405,-9.695 -18.111,-15.057 -5.678,-5.4 -11,-11.143 -15.988,-17.141 -9.921,-12.04 -18.363,-25.234 -25.088,-39.242 -6.813,-13.956 -11.865,-28.759 -14.931,-43.951 -6.304,-30.325 -4.2,-62.417 6.704,-90.977 5.408,-14.272 12.728,-27.702 21.673,-39.812 4.485,-6.04 9.23,-11.862 14.331,-17.33 2.526,-2.745 5.198,-5.419 7.821,-7.98 2.602,-2.542 5.176,-5.123 7.719,-7.725 0.496,-0.509 0.987,-1.025 1.479,-1.535 -3.423,-7.163 -6.223,-13.994 -8.982,-21.063 -2.845,-7.354 -5.479,-14.757 -7.935,-22.209 -4.912,-14.9 -9.138,-29.982 -12.744,-45.196 -7.211,-30.424 -11.94,-61.37 -14.224,-92.459 -4.582,-62.168 0.908,-124.923 16.253,-185.006 l 2.203,-9.522 4.696,8.593 16.868,30.925 c 1.776,-12.41 4.075,-24.626 6.618,-36.863 3.352,-15.939 7.249,-31.754 11.605,-47.446 8.728,-31.378 19.33,-62.248 31.733,-92.405 24.82,-60.288 56.958,-117.802 96.654,-169.912 l 14.536,-15.745 -0.761,20.08 -1.392,36.661 c 15.135,-12.684 30.756,-24.619 46.695,-36.171 9.053,-6.612 18.24,-13.019 27.502,-19.329 9.236,-6.348 18.585,-12.528 28.026,-18.569 18.806,-12.198 38.033,-23.734 57.411,-34.994 19.507,-11.249 39.474,-21.59 59.419,-31.712 19.95,-10.131 40.074,-19.772 59.953,-29.757 19.88,-9.97 39.723,-19.924 58.944,-30.806 19.276,-10.764 38.022,-22.411 55.133,-35.89 8.491,-6.79 16.507,-14.147 23.346,-22.389 6.78,-8.243 12.518,-17.361 15.584,-27.433 l 3.378,0.886 3.379,-0.886 c 3.067,10.072 8.804,19.19 15.584,27.433 6.839,8.242 14.855,15.599 23.345,22.389 17.111,13.479 35.858,25.126 55.134,35.89 19.221,10.882 39.064,20.836 58.944,30.806 19.88,9.985 40.003,19.626 59.953,29.757 19.944,10.122 39.911,20.463 59.419,31.712 19.378,11.26 38.605,22.796 57.411,34.994 9.441,6.041 18.79,12.221 28.026,18.569 9.262,6.31 18.45,12.717 27.502,19.329 15.939,11.552 31.56,23.487 46.69,36.171 l -1.387,-36.661 -0.761,-20.08 14.536,15.745 c 39.696,52.11 71.834,109.624 96.653,169.912 12.404,30.157 23.006,61.027 31.734,92.405 4.356,15.692 8.248,31.507 11.605,47.446 2.543,12.237 4.837,24.453 6.618,36.863 l 16.868,-30.925 4.691,-8.593 2.208,9.522 c 15.345,60.083 20.84,122.838 16.253,185.006 -2.285,31.089 -7.012,62.035 -14.224,92.459 -3.606,15.214 -7.832,30.296 -12.744,45.196 -2.461,7.452 -5.09,14.855 -7.935,22.209 -2.759,7.069 -5.559,13.9 -8.982,21.063 0.491,0.51 0.982,1.026 1.479,1.535 C -5.177,-5.123 -2.602,-2.542 0,0"
             style="fill:#ffffff;fill-opacity:1;fill-rule:nonzero;stroke:none"
             id="path20" /></g></g></g></g></svg>
